<?xml version="1.0" encoding="utf-8"?>
<!-- Generator: Adobe Illustrator 21.0.0, SVG Export Plug-In . SVG Version: 6.00 Build 0)  -->
<svg version="1.1" id="Layer_1" xmlns="http://www.w3.org/2000/svg" xmlns:xlink="http://www.w3.org/1999/xlink" x="0px" y="0px"
	 viewBox="0 0 512 512" style="enable-background:new 0 0 512 512;" xml:space="preserve">
<style type="text/css">
	.st0{fill:#71CCE0;}
	.st1{fill:#DFDFDF;}
	.st2{fill:#4A555F;}
	.st3{fill:#FFD452;}
	.st4{fill:#F58E6F;}
	.st5{fill:#FFFFFF;}
	.st6{fill:none;}
</style>
<g>
	<g>
		<g>
			<g>
				<path class="st2" d="M0.768,0v449.762h420.565l-24.428-24.135l-18.912-38.233l-14.525,9.711
					c-22.201,14.813-49.25,21.386-76.139,18.514c-23.028-2.474-45.345-12.282-62.842-27.618
					c-25.162-22.046-39.447-53.857-39.193-87.275c0.255-33.4,15.032-64.989,40.544-86.663c18.216-15.465,41.34-24.969,65.112-26.758
					c34.062-2.559,66.033,9.249,90.034,33.268c38.539,38.541,44.589,99.366,14.386,144.629l-9.711,14.526l38.249,18.942
					l17.054,16.847V0H0.768z M434.656,400.42l-7.038-6.951l-32.724-16.208l5.721-8.558c31.868-47.757,25.487-111.931-15.171-152.59
					c-25.317-25.34-59.046-37.805-94.968-35.098c-25.09,1.888-49.495,11.917-68.72,28.239
					c-26.912,22.864-42.499,56.187-42.768,91.422c-0.268,35.254,14.801,68.812,41.344,92.067
					c18.463,16.184,42.017,26.534,66.325,29.145c28.37,3.028,56.886-3.907,80.313-19.54l8.555-5.719l16.196,32.739l14.255,14.086
					H7.075V6.307h427.581V400.42z"/>
			</g>
		</g>
	</g>
	<g>
		<g>
			<g>
				<path class="st1" d="M14.432,13.665v422.432H388.07l-2.397-2.355L372.639,407.4l-1.577,1.072
					c-21.065,14.043-45.682,21.485-71.141,21.485c-4.667,0-9.397-0.252-14.043-0.756c-25.816-2.775-50.812-13.749-70.405-30.925
					c-28.15-24.66-44.127-60.252-43.833-97.651c0.273-37.378,16.818-72.718,45.346-96.978c0.231-0.189,0.463-0.378,0.694-0.568
					H45.987V39.628h352.468V203.08h-16.335c2.943,2.459,5.781,5.066,8.535,7.82c20.981,21.002,33.363,47.932,36.643,75.871V13.665
					H14.432z M100.331,224.881l41.31,41.625h-20.75v138.856h-40.7V266.506H59.042L100.331,224.881z M405.666,374.395l21.632,10.701
					v-68.24c-2.291,19.551-9.103,38.745-20.56,55.941L405.666,374.395z"/>
			</g>
		</g>
	</g>
	<g>
		<g>
			<g>
				<path class="st2" d="M205.605,316.028l-6.235,0.948c0.326,2.141,0.724,4.295,1.184,6.4l6.161-1.344
					C206.285,320.058,205.911,318.037,205.605,316.028z M204.544,303.87l-6.305,0.152c0.051,2.164,0.172,4.349,0.36,6.495
					l6.282-0.548C204.706,307.955,204.593,305.904,204.544,303.87z M208.207,327.951l-6.062,1.737
					c0.596,2.083,1.266,4.168,1.99,6.197l5.939-2.121C209.394,331.861,208.766,329.906,208.207,327.951z M207.064,279.647
					l-6.138-1.445c-0.494,2.096-0.927,4.243-1.288,6.378l6.219,1.051C206.195,283.627,206.601,281.614,207.064,279.647z
					 M205.031,291.679l-6.274-0.653c-0.223,2.149-0.38,4.333-0.467,6.49l6.303,0.252
					C204.674,295.744,204.821,293.695,205.031,291.679z M217.857,350.313l-5.422,3.221c1.103,1.856,2.282,3.703,3.507,5.489
					l5.202-3.566C219.996,353.783,218.889,352.052,217.857,350.313z M239.588,219.721l3.745,5.075
					c1.631-1.204,3.323-2.371,5.028-3.469l-3.414-5.303C243.129,217.195,241.326,218.438,239.588,219.721z M238.259,382.515
					c1.718,1.312,3.499,2.585,5.292,3.782l3.5-5.247c-1.682-1.122-3.351-2.315-4.961-3.546L238.259,382.515z M228.45,373.979
					c1.532,1.516,3.137,3.005,4.768,4.424l4.141-4.757c-1.531-1.333-3.036-2.729-4.474-4.151L228.45,373.979z M224.755,360.381
					l-4.962,3.892c1.33,1.696,2.735,3.375,4.178,4.992l4.706-4.198C227.322,363.549,226.003,361.973,224.755,360.381z
					 M212.311,339.444l-5.792,2.499c0.855,1.982,1.788,3.964,2.771,5.892l5.619-2.866
					C213.986,343.161,213.112,341.302,212.311,339.444z M222.032,246.494l-5.143-3.65c-1.248,1.76-2.457,3.583-3.592,5.421
					l5.367,3.314C219.729,249.854,220.862,248.144,222.032,246.494z M385.181,258.828l5.635-2.831
					c-0.97-1.931-2.016-3.856-3.108-5.722l-5.443,3.188C383.291,255.213,384.271,257.018,385.181,258.828z M389.943,270.062
					l5.954-2.084c-0.715-2.043-1.505-4.085-2.347-6.072l-5.806,2.461C388.532,266.23,389.272,268.145,389.943,270.062z
					 M379.009,248.298l5.227-3.531c-1.211-1.792-2.496-3.567-3.819-5.275l-4.987,3.86
					C376.671,244.953,377.875,246.617,379.009,248.298z M371.54,238.641l4.732-4.17c-1.431-1.623-2.929-3.218-4.452-4.741
					l-0.912-0.901l-4.404,4.515l0.856,0.846C368.791,235.619,370.197,237.118,371.54,238.641z M394.986,293.891l6.286-0.511
					c-0.175-2.159-0.422-4.334-0.732-6.465l-6.241,0.907C394.59,289.822,394.822,291.863,394.986,293.891z M393.226,281.814
					l6.171-1.304c-0.446-2.109-0.967-4.236-1.55-6.323l-6.075,1.698C392.32,277.841,392.809,279.837,393.226,281.814z
					 M229.713,237.018l-4.636-4.275c-1.461,1.584-2.893,3.24-4.256,4.921l4.898,3.973C227,240.059,228.343,238.505,229.713,237.018z
					 M249.076,389.731c1.87,1.081,3.8,2.114,5.735,3.071l2.796-5.654c-1.814-0.897-3.623-1.865-5.376-2.878L249.076,389.731z
					 M215.631,256.869l-5.57-2.96c-1.016,1.915-1.981,3.879-2.866,5.842l5.749,2.593
					C213.773,260.505,214.677,258.662,215.631,256.869z M238.54,228.576l-4.065-4.823c-1.652,1.392-3.282,2.856-4.842,4.348
					l4.358,4.558C235.457,231.258,236.988,229.884,238.54,228.576z M210.616,267.982l-5.905-2.219
					c-0.758,2.016-1.462,4.089-2.092,6.159l6.034,1.837C209.244,271.816,209.904,269.873,210.616,267.982z M366.113,224.437
					c-1.641-1.41-3.346-2.784-5.068-4.081l-3.796,5.036c1.614,1.216,3.213,2.505,4.754,3.829L366.113,224.437z M324.544,209.462
					c1.961,0.521,3.926,1.114,5.843,1.758l2.012-5.976c-2.044-0.689-4.14-1.32-6.231-1.878L324.544,209.462z M355.999,378.817
					l3.712,5.1c1.74-1.267,3.469-2.612,5.138-4.001l-4.032-4.849C359.25,376.369,357.629,377.631,355.999,378.817z M373.717,362.085
					l4.872,4.005c1.368-1.664,2.702-3.399,3.965-5.155l-5.12-3.683C376.249,358.9,374.999,360.526,373.717,362.085z
					 M334.633,390.514l2.293,5.876c2.016-0.787,4.03-1.649,5.986-2.56l-2.665-5.716
					C338.413,388.969,336.524,389.776,334.633,390.514z M347.066,218.689c1.764,1.004,3.514,2.076,5.198,3.185l3.47-5.266
					c-1.798-1.186-3.666-2.329-5.547-3.401L347.066,218.689z M345.693,385.356l3.028,5.533c1.893-1.037,3.78-2.15,5.608-3.31
					l-3.377-5.325C349.238,383.341,347.468,384.385,345.693,385.356z M250.533,212.679l3.065,5.512
					c1.773-0.986,3.599-1.925,5.427-2.791l-2.7-5.699C254.375,210.625,252.425,211.627,250.533,212.679z M367.361,369.096
					c-0.65,0.65-1.307,1.288-1.971,1.914l4.328,4.589c0.709-0.669,1.41-1.351,2.101-2.042c0.848-0.847,1.676-1.705,2.486-2.573
					l-4.611-4.303C368.933,367.496,368.156,368.301,367.361,369.096z M393.857,318.22l6.212,1.092
					c0.372-2.117,0.682-4.283,0.92-6.441l-6.268-0.694C394.496,314.202,394.206,316.235,393.857,318.22z M401.592,299.876
					l-6.307,0.113c0.01,0.551,0.015,1.102,0.014,1.659c0,1.482-0.035,2.964-0.104,4.445l6.301,0.292
					c0.073-1.578,0.11-3.157,0.11-4.73C401.608,301.061,401.603,300.469,401.592,299.876z M390.987,330.075l6.021,1.875
					c0.642-2.058,1.225-4.169,1.734-6.272l-6.13-1.484C392.134,326.166,391.587,328.145,390.987,330.075z M386.622,341.464
					l5.732,2.63c0.901-1.965,1.75-3.982,2.522-5.996l-5.888-2.258C388.263,337.729,387.468,339.62,386.622,341.464z
					 M380.833,352.191l5.346,3.349c1.143-1.825,2.243-3.717,3.272-5.623l-5.551-2.995
					C382.937,348.708,381.905,350.482,380.833,352.191z M336.103,213.351c1.878,0.769,3.752,1.608,5.568,2.492l2.761-5.67
					c-1.937-0.943-3.935-1.837-5.937-2.659L336.103,213.351z M323.004,394.206l1.517,6.122c2.093-0.52,4.202-1.115,6.266-1.77
					l-1.909-6.011C326.943,393.162,324.967,393.719,323.004,394.206z M273.03,399.724c2.082,0.568,4.21,1.077,6.326,1.512
					l1.271-6.177c-1.985-0.409-3.983-0.886-5.936-1.42L273.03,399.724z M274.671,203.086l1.558,6.112
					c1.963-0.501,3.968-0.944,5.96-1.318l-1.162-6.198C278.903,202.08,276.763,202.552,274.671,203.086z M262.295,207.105
					l2.328,5.861c1.876-0.745,3.808-1.441,5.742-2.069l-1.946-5.999C266.356,205.567,264.296,206.311,262.295,207.105z
					 M260.729,395.498c1.995,0.832,4.04,1.61,6.082,2.31l2.049-5.964c-1.914-0.658-3.833-1.387-5.702-2.166L260.729,395.498z
					 M285.767,402.341c2.132,0.3,4.309,0.534,6.47,0.697l0.474-6.288c-2.026-0.153-4.068-0.374-6.068-0.654L285.767,402.341z
					 M287.457,200.686l0.766,6.26c2.012-0.246,4.058-0.43,6.081-0.548l-0.367-6.297C291.78,200.227,289.6,200.424,287.457,200.686z
					 M312.578,207.079c2.015,0.269,4.042,0.606,6.021,1l1.232-6.186c-2.112-0.42-4.27-0.778-6.418-1.065L312.578,207.079z
					 M310.999,396.383l0.725,6.266c2.142-0.248,4.309-0.57,6.438-0.956l-1.125-6.206
					C315.039,395.849,313.007,396.151,310.999,396.383z M300.407,206.237c2.031,0.011,4.082,0.087,6.098,0.228l0.437-6.292
					c-2.149-0.149-4.338-0.231-6.503-0.242L300.407,206.237z M299.952,397.022l-1.138-0.007l-0.082,6.307l1.223,0.007
					c1.761-0.001,3.524-0.046,5.285-0.138l-0.326-6.299C303.261,396.978,301.605,397.021,299.952,397.022z"/>
			</g>
		</g>
	</g>
	<g>
		<g>
			<path class="st3" d="M360.255,241.293c-16.123-16.128-37.563-25.01-60.366-25.01c-22.79,0-44.216,8.873-60.33,24.984
				c-33.275,33.269-33.274,87.415,0.002,120.699c16.124,16.129,37.563,25.011,60.366,25.011c22.791,0,44.215-8.873,60.331-24.984
				c16.12-16.116,24.996-37.546,24.996-60.343C385.253,278.851,376.375,257.417,360.255,241.293z"/>
		</g>
	</g>
	<g>
		<g>
			<g>
				<path class="st2" d="M351.407,250.14c-13.757-13.761-32.051-21.34-51.511-21.34c-19.446,0-37.729,7.571-51.481,21.32
					c-13.735,13.732-21.298,32.019-21.298,51.493c0.001,19.474,7.564,37.763,21.299,51.5c13.758,13.762,32.052,21.341,51.511,21.341
					c19.448-0.001,37.73-7.573,51.481-21.32c13.754-13.751,21.33-32.038,21.33-51.492
					C372.737,282.189,365.162,263.898,351.407,250.14z M346.949,348.674c-12.559,12.556-29.26,19.472-47.022,19.473
					c-17.774,0-34.484-6.923-47.052-19.493c-12.543-12.545-19.45-29.251-19.451-47.04c0-17.789,6.907-34.493,19.45-47.033
					c12.56-12.557,29.26-19.473,47.022-19.473c17.775,0,34.484,6.923,47.051,19.492c12.564,12.566,19.484,29.274,19.484,47.042
					C366.431,319.412,359.512,336.115,346.949,348.674z"/>
			</g>
		</g>
	</g>
	<g>
		<g>
			<g>
				<path class="st2" d="M503.684,468.583l-76.068-75.113l-32.721-16.203l5.712-8.555c31.88-47.754,25.505-111.935-15.16-152.607
					c-25.322-25.33-59.053-37.806-94.961-35.096c-25.096,1.885-49.504,11.917-68.729,28.248
					c-26.909,22.861-42.496,56.181-42.766,91.414c-0.269,35.253,14.799,68.811,41.34,92.067
					c18.485,16.198,42.037,26.55,66.318,29.15c28.352,3.033,56.883-3.906,80.318-19.545l8.556-5.709l16.205,32.743l76.287,75.328
					c4.927,4.865,11.38,7.295,17.832,7.295c6.506,0,13.011-2.471,17.948-7.408c4.816-4.815,7.457-11.218,7.435-18.028
					C511.21,479.754,508.53,473.369,503.684,468.583z M499.338,500.132c-7.391,7.39-19.452,7.429-26.89,0.085l-75.534-74.585
					l-18.921-38.229l-14.524,9.694c-22.209,14.82-49.25,21.395-76.146,18.518c-23.002-2.462-45.316-12.271-62.833-27.62
					c-25.162-22.048-39.445-53.859-39.191-87.276c0.256-33.398,15.033-64.983,40.543-86.656
					c18.215-15.475,41.341-24.98,65.117-26.766c34.052-2.551,66.027,9.257,90.028,33.267
					c38.545,38.552,44.591,99.385,14.375,144.646l-9.698,14.525l38.244,18.937l75.344,74.4c3.642,3.596,5.657,8.395,5.672,13.513
					C504.942,491.702,502.958,496.513,499.338,500.132z"/>
			</g>
		</g>
	</g>
	<g>
		<g>
			<path class="st0" d="M492.902,479.504l-74.31-73.378l-28.145-13.936l13.896,28.074l74.457,73.521
				c1.889,1.866,4.392,2.894,7.05,2.894c2.681,0,5.201-1.044,7.094-2.938c1.905-1.905,2.948-4.436,2.941-7.129
				C495.876,483.919,494.816,481.395,492.902,479.504z"/>
		</g>
	</g>
	<g>
		<g>
			
				<rect x="373.959" y="382.105" transform="matrix(0.7072 -0.707 0.707 0.7072 -160.089 383.943)" class="st2" width="19.12" height="6.308"/>
		</g>
	</g>
	<g>
		<g>
			
				<rect x="182.289" y="99.079" transform="matrix(0.7175 -0.6966 0.6966 0.7175 -35.3479 164.7666)" class="st2" width="6.307" height="53.759"/>
		</g>
	</g>
	<g>
		<g>
			
				<rect x="315.237" y="79.963" transform="matrix(0.7338 -0.6794 0.6794 0.7338 20.0637 241.6675)" class="st2" width="6.306" height="30.541"/>
		</g>
	</g>
	<g>
		<g>
			
				<rect x="339.609" y="89.864" transform="matrix(0.725 -0.6888 0.6888 0.725 34.5138 272.4663)" class="st2" width="37.628" height="6.307"/>
		</g>
	</g>
	<g>
		<g>
			
				<rect x="208.446" y="111.338" transform="matrix(0.7475 -0.6642 0.6642 0.7475 -11.4755 198.7896)" class="st2" width="94.634" height="6.306"/>
		</g>
	</g>
	<g>
		<g>
			
				<rect x="61.319" y="139.066" transform="matrix(0.7332 -0.68 0.68 0.7332 -66.2716 115.5282)" class="st2" width="105.545" height="6.306"/>
		</g>
	</g>
	<g>
		<g>
			<g>
				<path class="st2" d="M100.337,220.403l-48.865,49.253h25.56v138.859h47.007V269.656h25.165L100.337,220.403z M117.731,263.349
					v138.859H83.339V263.349H66.613l33.725-33.991l33.725,33.991H117.731z"/>
			</g>
		</g>
	</g>
	<g>
		<g>
			<polygon class="st4" points="100.337,239.805 84.279,255.991 90.697,255.991 90.697,394.849 110.375,394.849 110.375,255.991 
				116.396,255.991 			"/>
		</g>
	</g>
	<g>
		<g>
			<g>
				<path class="st2" d="M142.686,408.737h6.307v-6.307h-6.307V408.737z M142.686,383.51h6.307v-6.307h-6.307V383.51z
					 M142.686,396.123h6.307v-6.307h-6.307V396.123z M142.686,351.975v6.307h6.307v-6.307H142.686z M142.686,370.896h6.307v-6.307
					h-6.307V370.896z"/>
			</g>
		</g>
	</g>
	<g>
		<g>
			<g>
				<path class="st2" d="M48.793,381.737H55.1v-6.307h-6.307V381.737z M48.793,369.123H55.1v-6.307h-6.307V369.123z M48.793,394.35
					H55.1v-6.307h-6.307V394.35z M48.793,406.964H55.1v-6.307h-6.307V406.964z M48.793,324.975v6.307H55.1v-6.307H48.793z
					 M48.793,356.51H55.1v-6.307h-6.307V356.51z M48.793,343.896H55.1v-6.307h-6.307V343.896z"/>
			</g>
		</g>
	</g>
	<g>
		<g>
			<polygon class="st2" points="52.034,306.157 36.98,322.865 41.665,327.086 51.858,315.774 61.252,327 66.089,322.951 			"/>
		</g>
	</g>
	<g>
		<g>
			<polygon class="st2" points="146.376,331.38 131.323,348.088 136.007,352.309 146.2,340.997 155.594,352.223 160.431,348.174 			
				"/>
		</g>
	</g>
	<g>
		<g>
			<g>
				<path class="st2" d="M159.935,85.6c-7.391,0-13.404,6.013-13.404,13.404c0,7.391,6.013,13.404,13.404,13.404
					c7.391,0,13.404-6.013,13.404-13.404C173.339,91.613,167.326,85.6,159.935,85.6z M159.935,106.101
					c-3.913,0-7.097-3.184-7.097-7.097c0-3.913,3.184-7.097,7.097-7.097c3.913,0,7.097,3.184,7.097,7.097
					C167.032,102.917,163.848,106.101,159.935,106.101z"/>
			</g>
		</g>
	</g>
	<g>
		<g>
			<g>
				<path class="st2" d="M212.019,138.417c-7.391,0-13.404,6.013-13.404,13.404c0,7.391,6.013,13.404,13.404,13.404
					c7.392,0,13.405-6.013,13.405-13.404C225.424,144.43,219.411,138.417,212.019,138.417z M212.019,158.918
					c-3.913,0-7.097-3.184-7.097-7.097c0-3.913,3.184-7.097,7.097-7.097c3.914,0,7.098,3.184,7.098,7.097
					C219.117,155.734,215.933,158.918,212.019,158.918z"/>
			</g>
		</g>
	</g>
	<g>
		<g>
			<g>
				<path class="st2" d="M299.908,64.378c-7.391,0-13.404,6.013-13.404,13.405c0,7.391,6.013,13.404,13.404,13.404
					c7.391,0,13.404-6.013,13.404-13.404C313.312,70.391,307.299,64.378,299.908,64.378z M299.908,84.88
					c-3.913,0-7.097-3.184-7.097-7.097c0-3.914,3.184-7.098,7.097-7.098c3.913,0,7.097,3.184,7.097,7.098
					C307.005,81.696,303.821,84.88,299.908,84.88z"/>
			</g>
		</g>
	</g>
	<g>
		<g>
			<g>
				<path class="st2" d="M336.964,99.158c-7.391,0-13.404,6.013-13.404,13.404c0,7.392,6.013,13.405,13.404,13.405
					c7.391,0,13.404-6.013,13.404-13.405C350.368,105.171,344.354,99.158,336.964,99.158z M336.964,119.66
					c-3.913,0-7.097-3.184-7.097-7.098c0-3.913,3.184-7.097,7.097-7.097s7.097,3.184,7.097,7.097
					C344.061,116.476,340.877,119.66,336.964,119.66z"/>
			</g>
		</g>
	</g>
	<g>
		<g>
			<g>
				<path class="st2" d="M105.178,194.577h6.307v-6.307h-6.307V194.577z M92.565,194.577h6.307v-6.307h-6.307V194.577z
					 M54.724,194.577h6.307v-6.307h-6.307V194.577z M117.792,194.577h6.307v-6.307h-6.307V194.577z M67.337,194.577h6.307v-6.307
					h-6.307V194.577z M79.951,194.577h6.307v-6.307h-6.307V194.577z M143.02,194.577h6.307v-6.307h-6.307V194.577z M180.86,194.577
					h6.307v-6.307h-6.307V194.577z M193.474,188.27v6.307h6.307v-6.307H193.474z M168.247,194.577h6.307v-6.307h-6.307V194.577z
					 M155.633,194.577h6.307v-6.307h-6.307V194.577z M130.406,194.577h6.307v-6.307h-6.307V194.577z"/>
			</g>
		</g>
	</g>
	<g>
		<g>
			<g>
				<path class="st2" d="M54.597,131.942h6.307v-6.307h-6.307V131.942z M54.597,157.169h6.307v-6.307h-6.307V157.169z
					 M54.597,169.782h6.307v-6.307h-6.307V169.782z M54.597,182.396h6.307v-6.307h-6.307V182.396z M54.597,144.555h6.307v-6.307
					h-6.307V144.555z M54.597,81.487h6.307V75.18h-6.307V81.487z M54.597,62.566v6.307h6.307v-6.307H54.597z M54.597,119.328h6.307
					v-6.307h-6.307V119.328z M54.597,106.714h6.307v-6.307h-6.307V106.714z M54.597,94.101h6.307v-6.307h-6.307V94.101z"/>
			</g>
		</g>
	</g>
	<g>
		<g>
			<g>
				<path class="st2" d="M382.755,133.04h6.307v-6.307h-6.307V133.04z M382.755,145.654h6.307v-6.307h-6.307V145.654z
					 M382.755,170.881h6.307v-6.307h-6.307V170.881z M382.755,183.495h6.307v-6.307h-6.307V183.495z M382.755,158.267h6.307v-6.307
					h-6.307V158.267z M382.755,82.585h6.307v-6.307h-6.307V82.585z M382.755,120.426h6.307v-6.307h-6.307V120.426z M382.755,63.665
					v6.307h6.307v-6.307H382.755z M382.755,95.199h6.307v-6.307h-6.307V95.199z M382.755,107.812h6.307v-6.307h-6.307V107.812z"/>
			</g>
		</g>
	</g>
	<g>
		<g>
			<g>
				<path class="st2" d="M218.665,57.356h6.307v-6.307h-6.307V57.356z M168.21,57.356h6.307v-6.307h-6.307V57.356z M130.369,57.356
					h6.307v-6.307h-6.307V57.356z M142.982,57.356h6.307v-6.307h-6.307V57.356z M193.437,57.356h6.307v-6.307h-6.307V57.356z
					 M180.823,57.356h6.307v-6.307h-6.307V57.356z M155.596,57.356h6.307v-6.307h-6.307V57.356z M117.755,57.356h6.307v-6.307
					h-6.307V57.356z M67.301,57.356h6.307v-6.307h-6.307V57.356z M54.687,57.356h6.307v-6.307h-6.307V57.356z M79.914,57.356h6.307
					v-6.307h-6.307V57.356z M105.142,57.356h6.307v-6.307h-6.307V57.356z M92.528,57.356h6.307v-6.307h-6.307V57.356z
					 M206.051,57.356h6.307v-6.307h-6.307V57.356z M344.801,57.356h6.307v-6.307h-6.307V57.356z M319.574,57.356h6.307v-6.307
					h-6.307V57.356z M332.188,57.356h6.307v-6.307h-6.307V57.356z M357.415,57.356h6.307v-6.307h-6.307V57.356z M370.028,57.356
					h6.307v-6.307h-6.307V57.356z M382.642,51.049v6.307h6.307v-6.307H382.642z M281.733,57.356h6.307v-6.307h-6.307V57.356z
					 M256.505,57.356h6.307v-6.307h-6.307V57.356z M306.96,57.356h6.307v-6.307h-6.307V57.356z M243.892,57.356h6.307v-6.307h-6.307
					V57.356z M269.119,57.356h6.307v-6.307h-6.307V57.356z M294.346,57.356h6.307v-6.307h-6.307V57.356z M231.278,57.356h6.307
					v-6.307h-6.307V57.356z"/>
			</g>
		</g>
	</g>
</g>
</svg>
