<svg xmlns="http://www.w3.org/2000/svg" viewBox="0 0 64 64"><title>Artboard-38</title><g id="Shield"><path d="M57.0586,11.002C40.7451,10.042,32.8574.4707,32.78.374a1.0026,1.0026,0,0,0-.7793-.373H31.999a1,1,0,0,0-.78.374c-.0771.0967-7.9116,9.6641-24.2778,10.627A1,1,0,0,0,6,12V38.415A21.107,21.107,0,0,0,17.9126,57.3467l13.6548,6.5547a.9983.9983,0,0,0,.8652,0l13.6543-6.5547A21.1066,21.1066,0,0,0,58,38.415V12A1,1,0,0,0,57.0586,11.002ZM56,38.415A19.0978,19.0978,0,0,1,45.2217,55.5439L32,61.8906,18.7778,55.5439A19.0982,19.0982,0,0,1,8,38.415V12.9336C21.8677,11.8379,29.6274,4.9707,32,2.4971c2.373,2.4736,10.1318,9.3408,24,10.4365Z" style="fill:#19191c"/><path d="M31.333,4.5146A38.8773,38.8773,0,0,1,9.8823,13.752,1,1,0,0,0,9,14.7451V38.416A18.09,18.09,0,0,0,19.2109,54.6426l12.3565,5.9306a.9974.9974,0,0,0,.8652,0l12.3565-5.9306A18.09,18.09,0,0,0,55,38.416V14.7451a1,1,0,0,0-.8818-.9931A38.8829,38.8829,0,0,1,32.667,4.5146,1,1,0,0,0,31.333,4.5146ZM53,15.625V38.416A16.0816,16.0816,0,0,1,43.9238,52.84L32,58.5625,20.0762,52.84A16.0816,16.0816,0,0,1,11,38.416V15.625a41.0276,41.0276,0,0,0,21-9.04A41.0356,41.0356,0,0,0,53,15.625Z" style="fill:#19191c"/><path d="M18,32A14,14,0,1,0,32,18,14.0158,14.0158,0,0,0,18,32Zm26,0A12,12,0,1,1,32,20,12.0131,12.0131,0,0,1,44,32Z" style="fill:#19191c"/><path d="M15,32A17,17,0,1,0,32,15,17.019,17.019,0,0,0,15,32Zm32,0A15,15,0,1,1,32,17,15.0164,15.0164,0,0,1,47,32Z" style="fill:#19191c"/><path d="M28.707,31.293a1,1,0,0,0-1.414,1.414l3,3a.9995.9995,0,0,0,1.414,0l6-6a1,1,0,0,0-1.414-1.414L31,33.5859Z" style="fill:#19191c"/></g></svg>